# xmcd CD database file
#
# Track frame offsets:
#	150
#	6262
#	13462
#	32100
#	39525
#	57637
#	67050
#	72412
#	79050
#	90750
#	95512
#	100612
#	113362
#	119775
#	127875
#	132712
#	136912
#	152925
#	183975
#	201600
#	222825
#	243750
#
# Disc length: 3562 seconds
#
# Revision: 0
# Processed by: cddbd v1.5.1PL0 Copyright (c) Steve Scherf et al.
# Submitted via: CDex 1.51
#
DISCID=400de816
DTITLE=Gerry Mulligan - I Want To Live! Soundtrack
DYEAR=1998
DGENRE=Jazz
TTITLE0=Main Title
TTITLE1=Poker Game
TTITLE2=San Diego Party
TTITLE3=Henry Leaves
TTITLE4=Stakeout
TTITLE5=Barbara Surrenders
TTITLE6=Trio Convicted
TTITLE7=Trip To Corona
TTITLE8=Peg's Visit
TTITLE9=Gas Chamber Unveiling
TTITLE10=Nightmare Sequence
TTITLE11=Preparations For Execution
TTITLE12=Letter Writing Sequence
TTITLE13=The Last Mile
TTITLE14=Death Scene
TTITLE15=End Title
TTITLE16=Black Nightgown
TTITLE17=Theme From -I Want To Live!-
TTITLE18=Night Watch
TTITLE19=Frisco Club
TTITLE20=Barbara's Theme
TTITLE21=Life's A Funny Thing
EXTD=YEAR: 1998
EXTT0=
EXTT1=
EXTT2=
EXTT3=
EXTT4=
EXTT5=
EXTT6=
EXTT7=
EXTT8=
EXTT9=
EXTT10=
EXTT11=
EXTT12=
EXTT13=
EXTT14=
EXTT15=
EXTT16=
EXTT17=
EXTT18=
EXTT19=
EXTT20=
EXTT21=
PLAYORDER=
